<mxfile host="app.diagrams.net" modified="2023-03-20T07:19:02.900Z" agent="5.0 (Windows NT 10.0; Win64; x64) AppleWebKit/537.36 (KHTML, like Gecko) Chrome/111.0.0.0 Safari/537.36" etag="aFH7kxcc3cea4vNv90Bs" version="21.0.8" type="github">
  <diagram id="C5RBs43oDa-KdzZeNtuy" name="Page-1">
    <mxGraphModel dx="1695" dy="537" grid="1" gridSize="10" guides="1" tooltips="1" connect="1" arrows="1" fold="1" page="1" pageScale="1" pageWidth="827" pageHeight="1169" math="0" shadow="0">
      <root>
        <mxCell id="WIyWlLk6GJQsqaUBKTNV-0" />
        <mxCell id="WIyWlLk6GJQsqaUBKTNV-1" parent="WIyWlLk6GJQsqaUBKTNV-0" />
        <mxCell id="m3I1wzvR6y6KVqd5ag9C-13" value="" style="edgeStyle=orthogonalEdgeStyle;rounded=0;orthogonalLoop=1;jettySize=auto;html=1;" edge="1" parent="WIyWlLk6GJQsqaUBKTNV-1" source="m3I1wzvR6y6KVqd5ag9C-11" target="m3I1wzvR6y6KVqd5ag9C-12">
          <mxGeometry relative="1" as="geometry" />
        </mxCell>
        <mxCell id="m3I1wzvR6y6KVqd5ag9C-15" value="" style="edgeStyle=orthogonalEdgeStyle;rounded=0;orthogonalLoop=1;jettySize=auto;html=1;" edge="1" parent="WIyWlLk6GJQsqaUBKTNV-1" source="m3I1wzvR6y6KVqd5ag9C-11" target="m3I1wzvR6y6KVqd5ag9C-14">
          <mxGeometry relative="1" as="geometry" />
        </mxCell>
        <mxCell id="m3I1wzvR6y6KVqd5ag9C-17" value="" style="edgeStyle=orthogonalEdgeStyle;rounded=0;orthogonalLoop=1;jettySize=auto;html=1;" edge="1" parent="WIyWlLk6GJQsqaUBKTNV-1" source="m3I1wzvR6y6KVqd5ag9C-11" target="m3I1wzvR6y6KVqd5ag9C-16">
          <mxGeometry relative="1" as="geometry" />
        </mxCell>
        <mxCell id="m3I1wzvR6y6KVqd5ag9C-11" value="创建图元" style="ellipse;whiteSpace=wrap;html=1;aspect=fixed;" vertex="1" parent="WIyWlLk6GJQsqaUBKTNV-1">
          <mxGeometry x="90" y="50" width="80" height="80" as="geometry" />
        </mxCell>
        <mxCell id="m3I1wzvR6y6KVqd5ag9C-12" value="创建点" style="ellipse;whiteSpace=wrap;html=1;" vertex="1" parent="WIyWlLk6GJQsqaUBKTNV-1">
          <mxGeometry x="-160" y="20" width="80" height="80" as="geometry" />
        </mxCell>
        <mxCell id="m3I1wzvR6y6KVqd5ag9C-44" style="edgeStyle=orthogonalEdgeStyle;rounded=0;orthogonalLoop=1;jettySize=auto;html=1;" edge="1" parent="WIyWlLk6GJQsqaUBKTNV-1" source="m3I1wzvR6y6KVqd5ag9C-14" target="m3I1wzvR6y6KVqd5ag9C-42">
          <mxGeometry relative="1" as="geometry">
            <Array as="points">
              <mxPoint x="-100" y="250" />
            </Array>
          </mxGeometry>
        </mxCell>
        <mxCell id="m3I1wzvR6y6KVqd5ag9C-14" value="移除线缓存，创建线" style="ellipse;whiteSpace=wrap;html=1;" vertex="1" parent="WIyWlLk6GJQsqaUBKTNV-1">
          <mxGeometry x="90" y="212.5" width="80" height="80" as="geometry" />
        </mxCell>
        <mxCell id="m3I1wzvR6y6KVqd5ag9C-16" value="创建面" style="ellipse;whiteSpace=wrap;html=1;" vertex="1" parent="WIyWlLk6GJQsqaUBKTNV-1">
          <mxGeometry x="360" y="10" width="80" height="80" as="geometry" />
        </mxCell>
        <mxCell id="m3I1wzvR6y6KVqd5ag9C-24" value="" style="edgeStyle=orthogonalEdgeStyle;rounded=0;orthogonalLoop=1;jettySize=auto;html=1;entryX=0.5;entryY=1;entryDx=0;entryDy=0;" edge="1" parent="WIyWlLk6GJQsqaUBKTNV-1" source="m3I1wzvR6y6KVqd5ag9C-18" target="m3I1wzvR6y6KVqd5ag9C-14">
          <mxGeometry relative="1" as="geometry">
            <Array as="points">
              <mxPoint x="-100" y="730" />
              <mxPoint x="130" y="730" />
            </Array>
          </mxGeometry>
        </mxCell>
        <mxCell id="m3I1wzvR6y6KVqd5ag9C-45" value="有，将该点作为线的终点，线加入场景" style="edgeLabel;html=1;align=center;verticalAlign=middle;resizable=0;points=[];" vertex="1" connectable="0" parent="m3I1wzvR6y6KVqd5ag9C-24">
          <mxGeometry relative="1" as="geometry">
            <mxPoint as="offset" />
          </mxGeometry>
        </mxCell>
        <mxCell id="m3I1wzvR6y6KVqd5ag9C-18" value="是否有线缓存？" style="rhombus;whiteSpace=wrap;html=1;spacing=5;" vertex="1" parent="WIyWlLk6GJQsqaUBKTNV-1">
          <mxGeometry x="-140" y="580" width="80" height="80" as="geometry" />
        </mxCell>
        <mxCell id="m3I1wzvR6y6KVqd5ag9C-25" style="edgeStyle=orthogonalEdgeStyle;rounded=0;orthogonalLoop=1;jettySize=auto;html=1;entryX=1;entryY=0.5;entryDx=0;entryDy=0;" edge="1" parent="WIyWlLk6GJQsqaUBKTNV-1" source="m3I1wzvR6y6KVqd5ag9C-23" target="m3I1wzvR6y6KVqd5ag9C-14">
          <mxGeometry relative="1" as="geometry">
            <Array as="points">
              <mxPoint x="400" y="200" />
              <mxPoint x="400" y="250" />
              <mxPoint x="200" y="250" />
              <mxPoint x="200" y="253" />
            </Array>
          </mxGeometry>
        </mxCell>
        <mxCell id="m3I1wzvR6y6KVqd5ag9C-26" value="取消创建" style="edgeLabel;html=1;align=center;verticalAlign=middle;resizable=0;points=[];" vertex="1" connectable="0" parent="m3I1wzvR6y6KVqd5ag9C-25">
          <mxGeometry x="-0.3997" y="-1" relative="1" as="geometry">
            <mxPoint as="offset" />
          </mxGeometry>
        </mxCell>
        <mxCell id="m3I1wzvR6y6KVqd5ag9C-23" value="有先缓存创建线" style="ellipse;whiteSpace=wrap;html=1;spacing=5;" vertex="1" parent="WIyWlLk6GJQsqaUBKTNV-1">
          <mxGeometry x="330" y="440" width="80" height="80" as="geometry" />
        </mxCell>
        <mxCell id="m3I1wzvR6y6KVqd5ag9C-36" style="edgeStyle=orthogonalEdgeStyle;rounded=0;orthogonalLoop=1;jettySize=auto;html=1;exitX=0;exitY=0.5;exitDx=0;exitDy=0;" edge="1" parent="WIyWlLk6GJQsqaUBKTNV-1" source="m3I1wzvR6y6KVqd5ag9C-42" target="m3I1wzvR6y6KVqd5ag9C-18">
          <mxGeometry relative="1" as="geometry">
            <mxPoint x="-209.99551724137908" y="315.0144827586207" as="sourcePoint" />
            <mxPoint x="-110.03" y="304.9799999999999" as="targetPoint" />
            <Array as="points">
              <mxPoint x="-200" y="400" />
              <mxPoint x="-200" y="620" />
            </Array>
          </mxGeometry>
        </mxCell>
        <mxCell id="m3I1wzvR6y6KVqd5ag9C-37" value="没有选择点，新创建一个点" style="edgeLabel;html=1;align=center;verticalAlign=middle;resizable=0;points=[];" vertex="1" connectable="0" parent="m3I1wzvR6y6KVqd5ag9C-36">
          <mxGeometry relative="1" as="geometry">
            <mxPoint as="offset" />
          </mxGeometry>
        </mxCell>
        <mxCell id="m3I1wzvR6y6KVqd5ag9C-39" value="" style="edgeStyle=orthogonalEdgeStyle;rounded=0;orthogonalLoop=1;jettySize=auto;html=1;exitX=1;exitY=0.5;exitDx=0;exitDy=0;verticalAlign=top;" edge="1" parent="WIyWlLk6GJQsqaUBKTNV-1" source="m3I1wzvR6y6KVqd5ag9C-42" target="m3I1wzvR6y6KVqd5ag9C-18">
          <mxGeometry relative="1" as="geometry">
            <mxPoint x="-200" y="480" as="sourcePoint" />
            <Array as="points">
              <mxPoint x="-10" y="400" />
              <mxPoint x="-10" y="620" />
            </Array>
          </mxGeometry>
        </mxCell>
        <mxCell id="m3I1wzvR6y6KVqd5ag9C-40" value="选择点，使用该点" style="edgeLabel;html=1;align=center;verticalAlign=middle;resizable=0;points=[];" vertex="1" connectable="0" parent="m3I1wzvR6y6KVqd5ag9C-39">
          <mxGeometry relative="1" as="geometry">
            <mxPoint as="offset" />
          </mxGeometry>
        </mxCell>
        <mxCell id="m3I1wzvR6y6KVqd5ag9C-42" value="悬浮点高亮" style="ellipse;whiteSpace=wrap;html=1;aspect=fixed;" vertex="1" parent="WIyWlLk6GJQsqaUBKTNV-1">
          <mxGeometry x="-140" y="360" width="80" height="80" as="geometry" />
        </mxCell>
      </root>
    </mxGraphModel>
  </diagram>
</mxfile>
